<?xml version="1.0" encoding="UTF-8"?>
<svg xmlns="http://www.w3.org/2000/svg" xmlns:xlink="http://www.w3.org/1999/xlink" width="1500px" height="919px" version="1.1" viewBox="0 0 1500 919">
    <title>
        Group 20
    </title>
    <defs>
        <radialGradient id="radialGradient-1" cx="50%" cy="21.9749374%" r="65.0436249%" fx="50%" fy="21.9749374%" gradientTransform="translate(0.500000,0.219749),scale(0.612667,1.000000),rotate(90.000000),translate(-0.500000,-0.219749)">
            <stop offset="0%" stop-color="#FFFFFF"/>
            <stop offset="41.3026148%" stop-color="#FFFFFF"/>
            <stop offset="100%" stop-color="#F6F7F9"/>
        </radialGradient>
        <rect id="path-2" width="1500" height="919" x="0" y="0"/>
    </defs>
    <g id="Page-1" fill="none" fill-rule="evenodd" stroke="none" stroke-width="1">
        <g id="Home">
            <g id="Group-20">
                <mask id="mask-3" fill="white">
                    <use xlink:href="#path-2"/>
                </mask>
                <use id="Mask" fill="url(#radialGradient-1)" xlink:href="#path-2"/>
                <g mask="url(#mask-3)" opacity="0.5">
                    <g transform="translate(0.000000, -9.000000)">
                        <g id="Group" fill="none" fill-rule="evenodd" stroke="none" stroke-width="1" transform="translate(120.000000, 109.000000)">
                            <circle id="Oval-Copy-2" cx="1.5" cy="1.5" r="1.5" fill="#BCBCBC"/>
                            <rect id="Rectangle" width="31" height="3" x="1.5" y="0" fill="#BCBCBC"/>
                            <circle id="Oval-Copy-3" cx="32.5" cy="1.5" r="1.5" fill="#BCBCBC"/>
                        </g>
                        <g id="Group-Copy-4" fill="none" fill-rule="evenodd" stroke="none" stroke-width="1" transform="translate(120.000000, 731.000000)">
                            <circle id="Oval-Copy-2" cx="1.5" cy="1.5" r="1.5" fill="#BCBCBC"/>
                            <rect id="Rectangle" width="31" height="3" x="1.5" y="0" fill="#BCBCBC"/>
                            <circle id="Oval-Copy-3" cx="32.5" cy="1.5" r="1.5" fill="#BCBCBC"/>
                        </g>
                        <g id="Group-Copy-2" fill="none" fill-rule="evenodd" stroke="none" stroke-width="1" transform="translate(1204.000000, 600.000000)">
                            <circle id="Oval-Copy-2" cx="2" cy="1.5" r="1.5" fill="#BCBCBC"/>
                            <rect id="Rectangle" width="72.5" height="3" x="73" y="0" fill="#BCBCBC"/>
                            <circle id="Oval-Copy-3" cx="74.5" cy="1.5" r="1.5" fill="#BCBCBC"/>
                        </g>
                        <g id="Group-Copy-5" fill="none" fill-rule="evenodd" stroke="none" stroke-width="1" transform="translate(1148.000000, 857.000000)">
                            <circle id="Oval-Copy-2" cx="1.5" cy="1.5" r="1.5" fill="#BCBCBC"/>
                            <rect id="Rectangle" width="101" height="3" x="1.5" y="0" fill="#BCBCBC"/>
                            <circle id="Oval-Copy-3" cx="102.5" cy="1.5" r="1.5" fill="#BCBCBC"/>
                        </g>
                        <g id="Group-Copy-3" fill="none" fill-rule="evenodd" stroke="none" stroke-width="1" transform="translate(0.000000, 254.000000)">
                            <circle id="Oval-Copy-2" cx="1.5" cy="1.5" r="1.5" fill="#F37046"/>
                            <rect id="Rectangle" width="101" height="3" x="1.5" y="0" fill="#F37046"/>
                            <circle id="Oval-Copy-3" cx="102.5" cy="1.5" r="1.5" fill="#F37046"/>
                        </g>
                        <g id="Group-Copy" fill="none" fill-rule="evenodd" stroke="none" stroke-width="1" transform="translate(1227.000000, 75.000000)">
                            <circle id="Oval-Copy-2" cx="1.5" cy="1.5" r="1.5" fill="#BCBCBC"/>
                            <rect id="Rectangle" width="31" height="3" x="1.5" y="0" fill="#BCBCBC"/>
                            <circle id="Oval-Copy-3" cx="32.5" cy="1.5" r="1.5" fill="#BCBCBC"/>
                        </g>
                        <circle id="Oval" cx="340.5" cy="200.5" r="5.5" fill="#BCBCBC" fill-rule="evenodd" stroke="none"/>
                        <circle id="Oval-Copy-20" cx="421.5" cy="822.5" r="5.5" fill="#BCBCBC" fill-rule="evenodd" stroke="none"/>
                        <circle id="Oval-Copy-13" cx="328" cy="44" r="4" fill="#BCBCBC" fill-rule="evenodd" stroke="none"/>
                        <circle id="Oval-Copy-21" cx="328" cy="666" r="4" fill="#BCBCBC" fill-rule="evenodd" stroke="none"/>
                        <circle id="Oval-Copy-7" cx="1447.5" cy="166.5" r="5.5" fill="#BCBCBC" fill-rule="evenodd" stroke="none"/>
                        <circle id="Oval-Copy-16" cx="259.5" cy="497.5" r="5.5" fill="#BCBCBC" fill-rule="evenodd" stroke="none"/>
                        <circle id="Oval-Copy-5" cx="243.5" cy="469.5" r="5.5" fill="#F37046" fill-rule="evenodd" stroke="none"/>
                        <circle id="Oval-Copy-8" cx="1343.5" cy="674.5" r="5.5" fill="#BCBCBC" fill-rule="evenodd" stroke="none"/>
                        <circle id="Oval-Copy" cx="283.5" cy="246.5" r="4.5" fill="#BCBCBC" fill-rule="evenodd" stroke="none"/>
                        <circle id="Oval-Copy-14" cx="1431.5" cy="427.5" r="4.5" fill="#BCBCBC" fill-rule="evenodd" stroke="none"/>
                        <circle id="Oval-Copy-9" cx="1390.5" cy="212.5" r="4.5" fill="#F37046" fill-rule="evenodd" stroke="none"/>
                        <circle id="Oval-Copy-12" cx="1305.5" cy="548.5" r="2.5" fill="#BCBCBC" fill-rule="evenodd" stroke="none"/>
                        <circle id="Oval-Copy-18" cx="1457.5" cy="775.5" r="4.5" fill="#BCBCBC" fill-rule="evenodd" stroke="none"/>
                        <circle id="Oval-Copy-15" cx="1298.5" cy="522.5" r="4.5" fill="#BCBCBC" fill-rule="evenodd" stroke="none"/>
                        <circle id="Oval-Copy-6" cx="237.5" cy="152.5" r="4.5" fill="#BCBCBC" fill-rule="evenodd" stroke="none"/>
                        <circle id="Oval-Copy-22" cx="49.5" cy="670.5" r="4.5" fill="#BCBCBC" fill-rule="evenodd" stroke="none"/>
                        <circle id="Oval-Copy-10" cx="1344.5" cy="118.5" r="4.5" fill="#BCBCBC" fill-rule="evenodd" stroke="none"/>
                        <circle id="Oval-Copy-17" cx="1036.5" cy="85.5" r="4.5" fill="#BCBCBC" fill-rule="evenodd" stroke="none"/>
                        <circle id="Oval-Copy-24" cx="1053.5" cy="103.5" r="2.5" fill="#BCBCBC" fill-rule="evenodd" stroke="none"/>
                        <circle id="Oval-Copy-19" cx="99.5" cy="552.5" r="4.5" fill="#BCBCBC" fill-rule="evenodd" stroke="none"/>
                        <circle id="Oval-Copy-23" cx="1234.5" cy="690.5" r="4.5" fill="#BCBCBC" fill-rule="evenodd" stroke="none"/>
                        <circle id="Oval-Copy-4" cx="114.5" cy="394.5" r="3.5" fill="#BCBCBC" fill-rule="evenodd" stroke="none"/>
                        <circle id="Oval-Copy-11" cx="1221.5" cy="360.5" r="3.5" fill="#BCBCBC" fill-rule="evenodd" stroke="none"/>
                        <g id="Group-2" fill="none" fill-rule="evenodd" stroke="none" stroke-width="1" transform="translate(211.000000, 157.000000)">
                            <g id="Group" fill="#BCBCBC" transform="translate(0.000000, 8.000000)">
                                <circle id="Oval-Copy-2" cx="3" cy="3" r="3"/>
                                <rect id="Rectangle" width="16" height="6" x="3" y="0"/>
                                <circle id="Oval-Copy-3" cx="19" cy="3" r="3"/>
                            </g>
                            <g id="Group" fill="#BCBCBC" transform="translate(11.000000, 11.000000) rotate(-270.000000) translate(-11.000000, -11.000000) translate(0.000000, 8.000000)">
                                <circle id="Oval-Copy-2" cx="3" cy="3" r="3"/>
                                <rect id="Rectangle" width="16" height="6" x="3" y="0"/>
                                <circle id="Oval-Copy-3" cx="19" cy="3" r="3"/>
                            </g>
                        </g>
                        <g id="Group-2-Copy-4" fill="none" fill-rule="evenodd" stroke="none" stroke-width="1" transform="translate(48.735441, 65.735441) rotate(17.000000) translate(-48.735441, -65.735441) translate(37.735441, 54.735441)">
                            <g id="Group" fill="#BCBCBC" transform="translate(0.000000, 8.000000)">
                                <circle id="Oval-Copy-2" cx="3" cy="3" r="3"/>
                                <rect id="Rectangle" width="16" height="6" x="3" y="0"/>
                                <circle id="Oval-Copy-3" cx="19" cy="3" r="3"/>
                            </g>
                            <g id="Group" fill="#BCBCBC" transform="translate(11.000000, 11.000000) rotate(-270.000000) translate(-11.000000, -11.000000) translate(0.000000, 8.000000)">
                                <circle id="Oval-Copy-2" cx="3" cy="3" r="3"/>
                                <rect id="Rectangle" width="16" height="6" x="3" y="0"/>
                                <circle id="Oval-Copy-3" cx="19" cy="3" r="3"/>
                            </g>
                        </g>
                        <g id="Group-2-Copy-7" fill="none" fill-rule="evenodd" stroke="none" stroke-width="1" transform="translate(44.735441, 816.735441) rotate(17.000000) translate(-44.735441, -816.735441) translate(33.735441, 805.735441)">
                            <g id="Group" fill="#F37046" transform="translate(0.000000, 8.000000)">
                                <circle id="Oval-Copy-2" cx="3" cy="3" r="3"/>
                                <rect id="Rectangle" width="16" height="6" x="3" y="0"/>
                                <circle id="Oval-Copy-3" cx="19" cy="3" r="3"/>
                            </g>
                            <g id="Group" fill="#F37046" transform="translate(11.000000, 11.000000) rotate(-270.000000) translate(-11.000000, -11.000000) translate(0.000000, 8.000000)">
                                <circle id="Oval-Copy-2" cx="3" cy="3" r="3"/>
                                <rect id="Rectangle" width="16" height="6" x="3" y="0"/>
                                <circle id="Oval-Copy-3" cx="19" cy="3" r="3"/>
                            </g>
                        </g>
                        <g id="Group-2-Copy-8" fill="none" fill-rule="evenodd" stroke="none" stroke-width="1" transform="translate(965.000000, 844.000000) rotate(17.000000) translate(-965.000000, -844.000000) translate(954.000000, 833.000000)">
                            <g id="Group" fill="#BCBCBC" transform="translate(0.000000, 8.000000)">
                                <circle id="Oval-Copy-2" cx="3" cy="3" r="3"/>
                                <rect id="Rectangle" width="16" height="6" x="3" y="0"/>
                                <circle id="Oval-Copy-3" cx="19" cy="3" r="3"/>
                            </g>
                            <g id="Group" fill="#BCBCBC" transform="translate(11.000000, 11.000000) rotate(-270.000000) translate(-11.000000, -11.000000) translate(0.000000, 8.000000)">
                                <circle id="Oval-Copy-2" cx="3" cy="3" r="3"/>
                                <rect id="Rectangle" width="16" height="6" x="3" y="0"/>
                                <circle id="Oval-Copy-3" cx="19" cy="3" r="3"/>
                            </g>
                        </g>
                        <g id="Group-2-Copy" fill="none" fill-rule="evenodd" stroke="none" stroke-width="1" transform="translate(1405.000000, 48.000000)">
                            <g id="Group" fill="#BCBCBC" transform="translate(0.000000, 8.000000)">
                                <circle id="Oval-Copy-2" cx="3" cy="3" r="3"/>
                                <rect id="Rectangle" width="16" height="6" x="3" y="0"/>
                                <circle id="Oval-Copy-3" cx="19" cy="3" r="3"/>
                            </g>
                            <g id="Group" fill="#BCBCBC" transform="translate(11.000000, 11.000000) rotate(-270.000000) translate(-11.000000, -11.000000) translate(0.000000, 8.000000)">
                                <circle id="Oval-Copy-2" cx="3" cy="3" r="3"/>
                                <rect id="Rectangle" width="16" height="6" x="3" y="0"/>
                                <circle id="Oval-Copy-3" cx="19" cy="3" r="3"/>
                            </g>
                        </g>
                        <g id="Group-2-Copy-6" fill="none" fill-rule="evenodd" stroke="none" stroke-width="1" transform="translate(863.000000, 15.000000) rotate(26.000000) translate(-863.000000, -15.000000) translate(852.000000, 4.000000)">
                            <g id="Group" fill="#BCBCBC" transform="translate(0.000000, 8.000000)">
                                <circle id="Oval-Copy-2" cx="3" cy="3" r="3"/>
                                <rect id="Rectangle" width="16" height="6" x="3" y="0"/>
                                <circle id="Oval-Copy-3" cx="19" cy="3" r="3"/>
                            </g>
                            <g id="Group" fill="#BCBCBC" transform="translate(11.000000, 11.000000) rotate(-270.000000) translate(-11.000000, -11.000000) translate(0.000000, 8.000000)">
                                <circle id="Oval-Copy-2" cx="3" cy="3" r="3"/>
                                <rect id="Rectangle" width="16" height="6" x="3" y="0"/>
                                <circle id="Oval-Copy-3" cx="19" cy="3" r="3"/>
                            </g>
                        </g>
                        <g id="Group-2-Copy-5" fill="none" fill-rule="evenodd" stroke="none" stroke-width="1" transform="translate(1448.000000, 860.000000)">
                            <g id="Group" fill="#BCBCBC" transform="translate(0.000000, 8.000000)">
                                <circle id="Oval-Copy-2" cx="3" cy="3" r="3"/>
                                <rect id="Rectangle" width="16" height="6" x="3" y="0"/>
                                <circle id="Oval-Copy-3" cx="19" cy="3" r="3"/>
                            </g>
                            <g id="Group" fill="#BCBCBC" transform="translate(11.000000, 11.000000) rotate(-270.000000) translate(-11.000000, -11.000000) translate(0.000000, 8.000000)">
                                <circle id="Oval-Copy-2" cx="3" cy="3" r="3"/>
                                <rect id="Rectangle" width="16" height="6" x="3" y="0"/>
                                <circle id="Oval-Copy-3" cx="19" cy="3" r="3"/>
                            </g>
                        </g>
                        <g id="Group-2-Copy-2" fill="none" fill-rule="evenodd" stroke="none" stroke-width="1" transform="translate(1404.159671, 305.159671) rotate(19.000000) translate(-1404.159671, -305.159671) translate(1390.659671, 291.659671)">
                            <g id="Group" fill="#BCBCBC" transform="translate(0.000000, 10.000000)">
                                <ellipse id="Oval-Copy-2" cx="3.68181818" cy="3.5" rx="3.68181818" ry="3.5"/>
                                <rect id="Rectangle" width="19.6363636" height="7" x="3.68181818" y="0"/>
                                <ellipse id="Oval-Copy-3" cx="23.3181818" cy="3.5" rx="3.68181818" ry="3.5"/>
                            </g>
                            <g id="Group" fill="#BCBCBC" transform="translate(13.500000, 13.500000) rotate(-270.000000) translate(-13.500000, -13.500000) translate(0.000000, 10.000000)">
                                <ellipse id="Oval-Copy-2" cx="3.68181818" cy="3.5" rx="3.68181818" ry="3.5"/>
                                <rect id="Rectangle" width="19.6363636" height="7" x="3.68181818" y="0"/>
                                <ellipse id="Oval-Copy-3" cx="23.3181818" cy="3.5" rx="3.68181818" ry="3.5"/>
                            </g>
                        </g>
                        <path id="Page-1" fill="none" stroke="#BCBCBC" stroke-linecap="round" stroke-width="2" d="M206,832 C209.041667,829.333333 215.125,829.333333 218.166667,832 C221.208333,834.666667 227.291667,834.666667 230.333333,832 C233.375,829.333333 239.458333,829.333333 242.5,832 C245.541667,834.666667 251.625,834.666667 254.666667,832 C257.708333,829.333333 263.791667,829.333333 266.833333,832 C269.875,834.666667 275.958333,834.666667 279,832"/>
                        <path id="Page-1-Copy-2" fill="none" stroke="#F37046" stroke-linecap="round" stroke-width="2" d="M133,42 C136,39.3333333 142,39.3333333 145,42 C148,44.6666667 154,44.6666667 157,42"/>
                        <path id="Page-1-Copy-7" fill="none" stroke="#BCBCBC" stroke-linecap="round" stroke-width="2" d="M459,79 C462,76.3333333 468,76.3333333 471,79 C474,81.6666667 480,81.6666667 483,79"/>
                        <path id="Page-1-Copy-5" fill="none" stroke="#BCBCBC" stroke-linecap="round" stroke-width="2" d="M62,467 C65,464.333333 71,464.333333 74,467 C77,469.666667 83,469.666667 86,467"/>
                        <path id="Page-1-Copy-6" fill="none" stroke="#BCBCBC" stroke-linecap="round" stroke-width="2" d="M1268,802 C1271,799.333333 1277,799.333333 1280,802 C1283,804.666667 1289,804.666667 1292,802"/>
                        <path id="Page-1-Copy-3" fill="none" stroke="#BCBCBC" stroke-linecap="round" stroke-width="2" d="M1142,439 C1145,436.333333 1151,436.333333 1154,439 C1157,441.666667 1163,441.666667 1166,439"/>
                        <path id="Page-1-Copy" fill="none" stroke="#BCBCBC" stroke-linecap="round" stroke-width="2" d="M1154,157 C1157.04167,154.333333 1163.125,154.333333 1166.16667,157 C1169.20833,159.666667 1175.29167,159.666667 1178.33333,157 C1181.375,154.333333 1187.45833,154.333333 1190.5,157 C1193.54167,159.666667 1199.625,159.666667 1202.66667,157 C1205.70833,154.333333 1211.79167,154.333333 1214.83333,157 C1217.875,159.666667 1223.95833,159.666667 1227,157"/>
                        <path id="Page-1-Copy-4" fill="none" stroke="#F37046" stroke-linecap="round" stroke-width="2" d="M1427,535 C1430.04167,532.333333 1436.125,532.333333 1439.16667,535 C1442.20833,537.666667 1448.29167,537.666667 1451.33333,535 C1454.375,532.333333 1460.45833,532.333333 1463.5,535 C1466.54167,537.666667 1472.625,537.666667 1475.66667,535 C1478.70833,532.333333 1484.79167,532.333333 1487.83333,535 C1490.875,537.666667 1496.95833,537.666667 1500,535"/>
                    </g>
                </g>
            </g>
        </g>
    </g>
</svg>
